<?xml version="1.0" encoding="UTF-8"?>
<svg width="24px" height="22px" viewBox="0 0 24 22" version="1.1" xmlns="http://www.w3.org/2000/svg" xmlns:xlink="http://www.w3.org/1999/xlink">
    <title>cart-black</title>
    <defs>
        <polygon id="path-1" points="0 0 22.88 0 22.88 22 0 22"></polygon>
    </defs>
    <g id="Header---Rollovers-on-Desktop" stroke="none" stroke-width="1" fill="none" fill-rule="evenodd">
        <g id="1280-Header---Search-Rollovers" transform="translate(-1610, -46)">
            <g id="header-elements" transform="translate(0, 25)">
                <g id="Cart" transform="translate(1608.4444, 15)">
                    <g id="Group-3" transform="translate(2, 0)">
                        <g id="cart-black" transform="translate(0, 6)">
                            <mask id="mask-2" fill="white">
                                <use xlink:href="#path-1"></use>
                            </mask>
                            <g id="Clip-2"></g>
                            <path d="M18.7941885,18.7397216 C19.2549168,18.7397216 19.6113144,19.0951086 19.6113144,19.5545305 C19.6113144,20.0139523 19.2549168,20.3703823 18.7941885,20.3703823 C18.3334602,20.3703823 17.9770626,20.0149952 17.9770626,19.5545305 C17.9770626,19.0951086 18.3334602,18.7397216 18.7941885,18.7397216 L18.7941885,18.7397216 Z M6.53625373,18.7397216 C6.99698201,18.7397216 7.35337966,19.0951086 7.35337966,19.5545305 C7.35337966,20.0139523 6.99698201,20.3703823 6.53625373,20.3703823 C6.07552545,20.3703823 5.71912781,20.0149952 5.71912781,19.5545305 C5.71912781,19.0951086 6.07552545,18.7397216 6.53625373,18.7397216 L6.53625373,18.7397216 Z M18.7941885,17.1101039 C17.4499183,17.1101039 16.3417648,18.2140721 16.3417648,19.5545305 C16.3417648,20.8949888 17.4499183,22 18.7941885,22 C20.1384587,22 21.2466122,20.8949888 21.2466122,19.5545305 C21.2466122,18.2140721 20.1384587,17.1101039 18.7941885,17.1101039 L18.7941885,17.1101039 Z M6.53625373,17.1101039 C5.19198353,17.1101039 4.08383004,18.2140721 4.08383004,19.5545305 C4.08383004,20.8949888 5.19198353,22 6.53625373,22 C7.88052393,22 8.98867742,20.8949888 8.98867742,19.5545305 C8.98867742,18.2140721 7.88052393,17.1101039 6.53625373,17.1101039 L6.53625373,17.1101039 Z M5.29317641,4.88797097 L21.0842329,4.88797097 L19.7472842,12.2222937 L6.1584147,12.2222937 L5.29317641,4.88797097 Z M0.803036771,7.37595386e-05 C0.433303633,0.00720071066 0.114559152,0.259856642 0.0246099306,0.617329586 C-0.0284705694,0.827224348 0.00526038869,1.0491131 0.116650995,1.23449841 C0.228041601,1.41988372 0.408724485,1.553382 0.619216123,1.60631199 L3.09804932,2.22243786 C3.24526273,2.25920203 3.35142373,2.37627377 3.36998883,2.5261986 L4.90801593,15.5753951 L4.90801593,15.5764381 C4.95717423,15.985798 5.30546598,16.2942521 5.72017373,16.2942521 L20.4305322,16.2942521 L20.4294863,16.2942521 C20.6470379,16.2942521 20.8543918,16.2087297 21.0076192,16.0559368 C21.1608467,15.9031438 21.2466122,15.6955957 21.2466122,15.4794432 C21.2455663,15.0314939 20.8800168,14.6677632 20.4294863,14.6677632 L6.44630451,14.6677632 L6.35138716,13.8529543 L20.4294863,13.8529543 C20.824583,13.8519114 21.1616311,13.569792 21.2322308,13.1828555 L22.8664826,4.21995807 C22.9104113,3.98268573 22.8460872,3.73706975 22.6907679,3.55168444 C22.5364945,3.36551691 22.3066533,3.25731029 22.0637381,3.25731029 L5.10124987,3.25731029 L4.99299703,2.33768442 C4.89572636,1.51974669 4.29719796,0.840522029 3.4965453,0.640796081 L1.01457433,0.0246702126 C0.945020571,0.0074614495 0.874682372,-0.000882193234 0.803036771,7.37595386e-05 Z" id="Fill-1" fill="#000000" mask="url(#mask-2)"></path>
                        </g>
                    </g>
                </g>
            </g>
        </g>
    </g>
</svg>