<svg xmlns="http://www.w3.org/2000/svg" width="31" height="38" viewBox="0 0 31 38">
  <path fill="#cd2215" d="M545.707,5101.09c-0.041,1.87-2.8,3.38-6.21,3.38s-6.169-1.51-6.209-3.38a10.264,10.264,0,0,0-9.29,10.23c0,5.68,4.581,5.67,10.231,5.67h10.537c5.65,0,10.23.01,10.23-5.67A10.262,10.262,0,0,0,545.707,5101.09Zm-14.808-7.12a2.709,2.709,0,0,0,.7.09h0.488c1.012,4.59,3.946,7.91,7.407,7.91,3.108,0,5.784-2.68,7.032-6.55a5.869,5.869,0,0,0,1.431-1.42c0.028-.01.058-0.01,0.086-0.02a2.452,2.452,0,0,0,1.917-2.34v-1.91a2.452,2.452,0,0,0-1.917-2.34v-0.3a8.588,8.588,0,0,0-17.147,0v0.31a2.45,2.45,0,0,0-1.866,2.33v1.91A2.45,2.45,0,0,0,530.9,5093.97Zm8.6,6.79c-3.463,0-6.325-3.78-6.774-8.68a3.489,3.489,0,0,1,1.086.51s-0.773-4.61.86-5.26a10.548,10.548,0,0,0,9.657,0c1.633,0.65.858,5.26,0.858,5.26a3.407,3.407,0,0,1,1.072-.51v0.12a13.311,13.311,0,0,1-.231,1.49,8.389,8.389,0,0,1-5,1.8,1.085,1.085,0,0,0-.719-0.27h-1.487a1.125,1.125,0,0,0,0,2.25H540.3a1.1,1.1,0,0,0,.776-0.32,11.678,11.678,0,0,0,4.159-.98C544.023,5098.93,541.908,5100.76,539.5,5100.76Zm-0.025-20.07a6.668,6.668,0,0,1,6.721,5.57,7.608,7.608,0,0,0-13.459.12A6.66,6.66,0,0,1,539.472,5080.69Z" transform="translate(-524 -5079)"/>
</svg>
