<?xml version="1.0" encoding="UTF-8"?>
<svg width="62px" height="44px" viewBox="0 0 62 44" version="1.1" xmlns="http://www.w3.org/2000/svg" xmlns:xlink="http://www.w3.org/1999/xlink">
    <title>giftcard</title>
    <g id="Main-Footer-FINAL" stroke="none" stroke-width="1" fill="none" fill-rule="evenodd">
        <g id="Footer-1280-(Current-Logo)---FINAL" transform="translate(-1045, -295)" fill="#CD2215" fill-rule="nonzero">
            <g id="footer" transform="translate(0, 31)">
                <g id="middle" transform="translate(0, 181)">
                    <g id="helpful-links" transform="translate(459, 36)">
                        <g id="Group-3" transform="translate(0, 41)">
                            <g id="gift-cards" transform="translate(585, 6)">
                                <path d="M8.94771242,40.9945355 L20,33 L20,44 C20,44 5.65686275,44 4.10457516,44 C2.55228758,44 1,42.7978142 1,40.9945355 C1,39.1912568 1,33 1,33 L14.2254902,33 L6.83660131,38.3497268 L8.94771242,40.9945355 Z M19.8368154,27.8201648 C20.2163825,26.077516 20.2163825,22.7166933 16.6104951,19.1691582 C14.0167866,16.6174225 9.33545902,13.6300245 7.50088472,15.6838606 C5.66631041,17.6754593 9.33545902,22.9656431 11.043511,24.6460545 C13.2576524,26.8866029 16.3574503,28.5670143 19.8368154,27.8201648 Z M1,3.14533623 C1,4.52928416 1,29 1,29 L10.003268,29 C9.32026144,28.4967462 8.5751634,27.867679 7.89215686,27.175705 C4.04248366,23.2754881 1,16.670282 4.47712418,13.2104121 C5.59477124,12.0780911 10.748366,8.11496746 20,18.7462039 L20,0 C20,0 6.09150327,0 4.10457516,0 C2.11764706,0 1,1.76138829 1,3.14533623 Z M36.2081377,38.3497268 L34.14241,40.9945355 L23,33 L23,44 C23,44 57.4913928,44 59.8701095,44 C62.0610329,44 63,42.1967213 63,40.9945355 C63,39.9726776 63,33 63,33 L28.8215962,33 L36.2081377,38.3497268 Z M32.9236399,25.6813581 C34.6254274,23.9858255 38.4071772,18.3968477 36.4532731,16.6385176 C34.7514857,14.6917949 29.9612692,17.5804801 27.3770735,20.1551778 C23.7844111,23.7346355 23.7844111,27.1257007 24.1625861,28.8840308 C27.8182776,29.4492084 30.7176192,27.8792708 32.9236399,25.6813581 Z M59.8701095,0 C57.741784,0 23,0 23,0 L23,18.7462039 C32.4522692,8.11496746 37.5226917,12.0780911 38.6494523,13.2104121 C42.1549296,16.7331887 39.0876369,23.2754881 35.143975,27.175705 C34.4553991,27.867679 33.7042254,28.4967462 33.0156495,29 L63,29 C63,29 63,4.46637744 63,3.14533623 C63,1.76138829 61.8732394,0 59.8701095,0 Z" id="giftcard"></path>
                            </g>
                        </g>
                    </g>
                </g>
            </g>
        </g>
    </g>
</svg>