<?xml version="1.0" encoding="UTF-8"?>
<svg width="34px" height="22px" viewBox="0 0 34 22" version="1.1" xmlns="http://www.w3.org/2000/svg" xmlns:xlink="http://www.w3.org/1999/xlink">
    <title>D363DA23-D0F5-4065-9988-0D77D46D3F57</title>
    <g id="Header---Sticky-Menu" stroke="none" stroke-width="1" fill="none" fill-rule="evenodd">
        <g id="960-Header---Sticky-with-Menu---My-Account-Not-Logged-In" transform="translate(-421, -20)">
            <g id="New-Tools" transform="translate(399, 20)">
                <g id="new-tools-badge-copy" transform="translate(22, 0)">
                    <polygon id="Fill-1" fill="#CD2215" points="0 0 0 16.7118584 16.7038082 22 33.4074074 16.7118584 33.4074074 0"></polygon>
                    <polygon id="Fill-2" fill="#FFFFFF" points="11.4074074 13.8518519 9.06883822 13.8518519 5.61117848 7.76761796 5.61117848 13.8518519 3.25925926 13.8518519 3.25925926 4.07407407 5.61117848 4.07407407 9.06211064 10.158308 9.06211064 4.07407407 11.4074074 4.07407407"></polygon>
                    <polygon id="Fill-3" fill="#FFFFFF" points="18.0791513 9.70161907 14.4988145 9.70161907 14.4988145 12.0386863 18.7278183 12.0386863 18.7278183 13.8518519 12.2222222 13.8518519 12.2222222 4.07407407 18.7407407 4.07407407 18.7407407 5.89398197 14.4988145 5.89398197 14.4988145 7.95556098 18.0791513 7.95556098"></polygon>
                    <polygon id="Fill-4" fill="#FFFFFF" points="27.5709935 10.2053598 28.6709633 4.07407407 30.962963 4.07407407 28.9278226 13.8518519 26.5304341 13.8518519 25.246034 8.27797491 23.9880844 13.8518519 21.5973085 13.8518519 19.5555556 4.07407407 21.8541679 4.07407407 22.9540343 10.2053598 24.2712909 4.07407407 26.2340023 4.07407407"></polygon>
                </g>
            </g>
        </g>
    </g>
</svg>