<svg xmlns="http://www.w3.org/2000/svg" width="37" height="37" viewBox="0 0 37 37">
  <path style="fill:#cd2215;" d="M1071,4861.07h0V4885h-37v-23.93h0a7.932,7.932,0,0,1,3.25.74c1.27,0.58,8.38,6.79,13.03,10.2-2.22,1.4-13.28,8.43-14.59,9.5a5.265,5.265,0,0,0-1.61,3.33,4.055,4.055,0,0,1,1.61-2.59c1.43-1.16,14.38-9.42,14.96-9.75a0.777,0.777,0,0,1,.21-0.12h0a4.444,4.444,0,0,1,1.72-.58,3.606,3.606,0,0,1,1.65.58h0c0.04,0.04.08,0.04,0.12,0.08h0c0.04,0.04.08,0.04,0.12,0.08,0.58,0.33,13.53,8.6,14.97,9.75a3.559,3.559,0,0,1,1.44,2.59h0a4.7,4.7,0,0,0-1.44-3.33c-1.32-1.11-12.58-8.31-14.64-9.58,4.65-3.41,11.72-9.58,12.99-10.16a7.579,7.579,0,0,1,3.21-.74h0Zm-34.66-.45a7.723,7.723,0,0,1,.87.33,2.984,2.984,0,0,1,.53.33v-7.07h29.6v7.03a3.335,3.335,0,0,1,.49-0.29,7.277,7.277,0,0,1,3.05-.74,3.7,3.7,0,0,0-1.28-1.77c-0.16-.12-0.45-0.33-0.86-0.61v-4.9h-7.61c-3.33-2.13-6.41-4.07-6.7-4.23a3.011,3.011,0,0,0-3.86,0c-0.29.16-3.37,2.1-6.7,4.23h-7.53v4.9c-0.41.28-.7,0.49-0.86,0.61a3.6,3.6,0,0,0-1.27,1.77,6.037,6.037,0,0,1,2.13.41h0Z" transform="translate(-1034 -4848)"/>
</svg>
