<svg xmlns="http://www.w3.org/2000/svg" width="36" height="38" viewBox="0 0 36 38">
  <path style="fill:#cd2215;" d="M545.964,5148.18l-0.36.18c-1.568.77-3.137,1.55-4.705,2.32-0.63.31-1.269,0.59-1.9,0.91h0c-0.36-.17-0.72-0.35-1.076-0.52l-0.36-.18-3.8-1.86c-0.231-.12-0.463-0.23-0.7-0.34-0.455-.23-0.909-0.45-1.359-0.67l-4.08-2.01-4.706-2.31a0.242,0.242,0,0,0-.068-0.04c-0.073-.03-0.142-0.07-0.215-0.1-0.171-.09-0.338-0.17-0.5-0.26l0.321-.15q2.25-1.11,4.5-2.21c0.711-.35,1.419-0.69,2.13-1.04h0c0.57,0.26,1.144.55,1.714,0.84q2.25,1.1,4.5,2.21l5.443,2.67q2.353,1.155,4.71,2.32Zm9.917-4.87c-0.111.05-.218,0.11-0.33,0.16h-0.012c-1.5.74-4.5,2.21-4.5,2.21l-2.126,1.05-1.714-.85q-2.25-1.1-4.5-2.21l-5.443-2.67c-1.568-.77-3.141-1.55-4.71-2.32-0.171-.08-0.343-0.17-0.514-0.25l0.356-.18,4.71-2.31c0.634-.31,1.281-0.62,1.911-0.94,0.476,0.24.951,0.47,1.423,0.7q2.25,1.11,4.5,2.22c1.813,0.89,3.63,1.79,5.443,2.68l4.71,2.31c0.265,0.13.527,0.27,0.792,0.4h0Zm-17.738,28.39c0,0.43,0,.87-0.009,1.3-0.193-.1-0.381-0.19-0.574-0.28q-2.25-1.11-4.5-2.22-2.72-1.335-5.443-2.68l-4.71-2.31c-0.634-.31-1.268-0.65-1.911-0.95v-18.57c0-.42.008-0.86,0.017-1.29l0.6,0.3c0.6,0.29,1.2.59,1.8,0.88,0.9,0.45,1.8.89,2.7,1.33a0.016,0.016,0,0,0,.017.01l5.477,2.7c1.56,0.77,3.124,1.53,4.684,2.3,0.618,0.3,1.23.62,1.852,0.92v18.56Zm1.723-18.58,7.277-3.58s-0.009,4.23-.009,4.48a1.286,1.286,0,1,0,2.572,0c0-1.77,0-5.74,0-5.74l7.29-3.59-0.013,19.88-17.13,8.42Z" transform="translate(-521 -5135)"/>
</svg>
